# xmcd
#
# Track frame offsets: 
#        150
#        16693
#        32859
#        50284
#        65599
#        89897
#        102975
#        119093
#        137227
#        157005
#        170862
#        192825
#        210163
#        226014
#        244594
#
# Disc length: 3439 seconds
#
# Revision: 0
# Processed by: cddbd v1.5.1PL2 Copyright (c) Steve Scherf et al.
# Submitted via: ExactAudioCopy v0.95b3
#
DISCID=d00d6d0f
DTITLE=The Judds - Spiritual Reflection
DYEAR=1900
DGENRE=Country
TTITLE0=When King Jesus calls his children home
TTITLE1=Gardian angel
TTITLE2=The sweetest gift 
TTITLE3=Beautiful Bethlehem
TTITLE4=Love can build a bridge
TTITLE5=Don't you hear Jeusalem Moan
TTITLE6=I know where I'm going
TTITLE7=Grandpa
TTITLE8=River of time
TTITLE9=Who is this baby
TTITLE10=Born to be blue
TTITLE11=Calling in the wind
TTITLE12=In my dreams
TTITLE13=Rompin' Stompin' Blues
TTITLE14=This country's rocking
EXTD=
EXTT0=
EXTT1=
EXTT2=
EXTT3=
EXTT4=
EXTT5=
EXTT6=
EXTT7=
EXTT8=
EXTT9=
EXTT10=
EXTT11=
EXTT12=
EXTT13=
EXTT14=
PLAYORDER=
